<?xml version="1.0" standalone="no"?>
<!DOCTYPE svg PUBLIC "-//W3C//DTD SVG 20010904//EN"
 "http://www.w3.org/TR/2001/REC-SVG-20010904/DTD/svg10.dtd">
<svg version="1.0" xmlns="http://www.w3.org/2000/svg"
 width="500.000000pt" height="500.000000pt" viewBox="0 0 500.000000 500.000000"
 preserveAspectRatio="xMidYMid meet">

<g transform="translate(0.000000,500.000000) scale(0.100000,-0.100000)"
fill="#000000" stroke="none">
<path d="M1381 3478 c49 -145 233 -675 407 -1178 l318 -915 84 -7 c47 -3 223
-6 392 -7 l306 -1 30 88 c37 109 735 2113 767 2203 l23 66 -201 6 c-111 4
-293 7 -404 7 l-202 0 -35 -112 c-68 -220 -366 -1208 -367 -1215 -1 -12 -36
100 -225 728 l-176 586 -202 6 c-110 4 -292 7 -403 7 l-202 0 90 -262z"/>
</g>
</svg>
